<svg width="15" height="14" viewBox="0 0 15 14" fill="none" xmlns="http://www.w3.org/2000/svg">
<path d="M8.45574 2.30796C8.36079 2.13817 8.22227 1.99677 8.05447 1.89835C7.88667 1.79993 7.69565 1.74805 7.50111 1.74805C7.30658 1.74805 7.11556 1.79993 6.94776 1.89835C6.77995 1.99677 6.64144 2.13817 6.54649 2.30796L2.38761 9.74721C2.29458 9.91361 2.24666 10.1014 2.24859 10.2921C2.25052 10.4827 2.30225 10.6695 2.39863 10.834C2.49502 10.9984 2.63272 11.1349 2.79808 11.2297C2.96344 11.3246 3.15073 11.3746 3.34136 11.3747H11.6574C11.8481 11.3747 12.0355 11.3248 12.2009 11.23C12.3664 11.1353 12.5043 10.9988 12.6007 10.8343C12.6972 10.6698 12.749 10.483 12.751 10.2923C12.753 10.1016 12.7051 9.91367 12.612 9.74721L8.45574 2.30796ZM8.15649 8.96846C8.15649 9.14251 8.08735 9.30943 7.96428 9.4325C7.84121 9.55557 7.67429 9.62471 7.50024 9.62471C7.32619 9.62471 7.15927 9.55557 7.0362 9.4325C6.91313 9.30943 6.84399 9.14251 6.84399 8.96846C6.84399 8.79441 6.91313 8.62749 7.0362 8.50442C7.15927 8.38135 7.32619 8.31221 7.50024 8.31221C7.67429 8.31221 7.84121 8.38135 7.96428 8.50442C8.08735 8.62749 8.15649 8.79441 8.15649 8.96846ZM7.06274 6.99971V4.81221C7.06274 4.69618 7.10883 4.5849 7.19088 4.50285C7.27293 4.42081 7.38421 4.37471 7.50024 4.37471C7.61627 4.37471 7.72755 4.42081 7.8096 4.50285C7.89164 4.5849 7.93774 4.69618 7.93774 4.81221V6.99971C7.93774 7.11574 7.89164 7.22702 7.8096 7.30907C7.72755 7.39112 7.61627 7.43721 7.50024 7.43721C7.38421 7.43721 7.27293 7.39112 7.19088 7.30907C7.10883 7.22702 7.06274 7.11574 7.06274 6.99971Z" fill="#FFB27D"/>
</svg>
